# xmcd
#
# Track frame offsets: 
#        150
#        16087
#        30867
#        43642
#        62102
#        79252
#        104415
#        115390
#        133125
#        147690
#        167410
#        191110
#
# Disc length: 2719 seconds
#
# Revision: 2
# Processed by: cddbd v1.5.2PL0 Copyright (c) Steve Scherf et al.
# Submitted via: ExactAudioCopy v1.0b1
#
DISCID=a40a9d0c
DTITLE=Bílé skály and Sešlost - Trampský večer
DYEAR=1900
DGENRE=Country
TTITLE0=Svatojánské proudy
TTITLE1=Vandrák
TTITLE2=Soumrak
TTITLE3=Hoj trampové
TTITLE4=Mariána
TTITLE5=Pluj obláčku
TTITLE6=Lístek
TTITLE7=Trampská mše
TTITLE8=Hvězda Loo
TTITLE9=Georgia
TTITLE10=Až světýlka v dáli vzplanou
TTITLE11=Rád se vrátím zas
EXTD=
EXTT0=
EXTT1=
EXTT2=
EXTT3=
EXTT4=
EXTT5=
EXTT6=
EXTT7=
EXTT8=
EXTT9=
EXTT10=
EXTT11=
PLAYORDER=
